<?xml version="1.0" standalone="no"?><!DOCTYPE svg PUBLIC "-//W3C//DTD SVG 1.1//EN" "http://www.w3.org/Graphics/SVG/1.1/DTD/svg11.dtd"><svg t="1697975014211" class="icon" viewBox="0 0 1024 1024" version="1.1" xmlns="http://www.w3.org/2000/svg" p-id="14830" xmlns:xlink="http://www.w3.org/1999/xlink" width="200" height="200"><path d="M692.992 356.608c6.528 0 13.056-2.56 18.048-7.552l36.224-36.224c9.984-9.984 9.984-26.24 0-36.224-9.984-9.984-26.24-9.984-36.224 0l-36.224 36.224c-9.984 9.984-9.984 26.24 0 36.224 5.12 4.992 11.648 7.552 18.176 7.552zM281.6 512c0-14.08-11.52-25.6-25.6-25.6h-51.2c-14.08 0-25.6 11.52-25.6 25.6s11.52 25.6 25.6 25.6h51.2c14.08 0 25.6-11.52 25.6-25.6z m31.232 162.944l-36.224 36.224a25.6512 25.6512 0 0 0 18.048 43.776c6.528 0 13.056-2.56 18.048-7.552l36.224-36.224c9.984-9.984 9.984-26.24 0-36.224-9.856-9.984-26.112-9.984-36.096 0z m0-325.888c4.992 4.992 11.52 7.552 18.048 7.552s13.056-2.56 18.048-7.552c9.984-9.984 9.984-26.24 0-36.224l-36.224-36.224c-9.984-9.984-26.24-9.984-36.224 0-9.984 9.984-9.984 26.24 0 36.224l36.352 36.224zM512 281.6c14.08 0 25.6-11.52 25.6-25.6v-51.2c0-14.08-11.52-25.6-25.6-25.6s-25.6 11.52-25.6 25.6v51.2c0 14.08 11.52 25.6 25.6 25.6z m307.2 204.8h-51.2c-14.08 0-25.6 11.52-25.6 25.6s11.52 25.6 25.6 25.6h51.2c14.08 0 25.6-11.52 25.6-25.6s-11.52-25.6-25.6-25.6z m-108.032 188.544c-9.984-9.984-26.24-9.984-36.224 0-9.984 9.984-9.984 26.24 0 36.224l36.224 36.224c4.992 4.992 11.52 7.552 18.048 7.552s13.056-2.56 18.048-7.552c9.984-9.984 9.984-26.24 0-36.224l-36.096-36.224zM512 742.4c-14.08 0-25.6 11.52-25.6 25.6v51.2c0 14.08 11.52 25.6 25.6 25.6s25.6-11.52 25.6-25.6v-51.2c0-14.08-11.52-25.6-25.6-25.6z m0-409.6c-98.816 0-179.2 80.384-179.2 179.2s80.384 179.2 179.2 179.2 179.2-80.384 179.2-179.2-80.384-179.2-179.2-179.2z m0 307.2c-70.528 0-128-57.472-128-128s57.472-128 128-128 128 57.472 128 128-57.472 128-128 128z" fill="#FF8B00" p-id="14831"></path></svg>